<svg xmlns="http://www.w3.org/2000/svg" viewBox="0 0 418 349.9" style=""><defs><style>.cls-1,.cls-2,.cls-7,.cls-8{fill:none}.cls-1,.cls-2,.cls-4,.cls-5,.cls-6{stroke:#7f7f7f}.cls-1,.cls-10,.cls-13,.cls-2,.cls-4,.cls-5,.cls-6,.cls-7,.cls-8{stroke-linecap:round;stroke-miterlimit:10}.cls-1,.cls-10,.cls-13,.cls-8{stroke-width:14px}.cls-2,.cls-4,.cls-5{stroke-width:40px}.cls-10,.cls-3,.cls-4{fill:#fff}.cls-5,.cls-6{fill:#7f7f7f}.cls-6{stroke-width:26px}.cls-10,.cls-13,.cls-7,.cls-8{stroke:#f4f4f4}.cls-7{stroke-width:12px}.cls-13,.cls-14{fill:#f4f4f4}</style></defs><g id="Layer_2" data-name="Layer 2"><g id="Layer_1-2" data-name="Layer 1"><path class="cls-1 MSbaUrju_0" d="M196 109V31L21 109"></path><path class="cls-2 MSbaUrju_1" d="M196 109V31L21 109"></path><path class="cls-1 MSbaUrju_2" d="M222 28v81h26"></path><path class="cls-2 MSbaUrju_3" d="M222 28v81h26"></path><path class="cls-3 MSbaUrju_4" d="M111 69h65"></path><path class="cls-1 MSbaUrju_5" d="M111 69h65"></path><path class="cls-2 MSbaUrju_6" d="M111 69h65"></path><path class="cls-4 MSbaUrju_7" d="M208 125v47M398 137H20"></path><path class="cls-2 MSbaUrju_8" d="M204 141c-72 44-181 56-184 56M213 141c72 44 182 56 185 56M146 191h115a2 2 0 0 1 1 5l-54 25"></path><path class="cls-2 MSbaUrju_9" d="m201 216 26 17s18 32-18 81l-9-14"></path><path class="cls-4 MSbaUrju_10" d="M144 242h254"></path><path class="cls-5 MSbaUrju_11" d="M286 109h14"></path><path class="cls-6 MSbaUrju_12" d="M259.5,108.8A7,7 0,1,1 273.5,108.8A7,7 0,1,1 259.5,108.8"></path><path class="cls-5 MSbaUrju_13" d="M319 109h14M352 109h14M384 109h14M111 242h14"></path><path class="cls-6 MSbaUrju_14" d="M51.5,241.8A7,7 0,1,1 65.5,241.8A7,7 0,1,1 51.5,241.8"></path><path class="cls-5 MSbaUrju_15" d="M78 242h14"></path><path class="cls-6 MSbaUrju_16" d="M33.5,241.8A7,7 0,1,1 47.5,241.8A7,7 0,1,1 33.5,241.8"></path><path class="cls-6 MSbaUrju_17" d="M15.5,241.8A7,7 0,1,1 29.5,241.8A7,7 0,1,1 15.5,241.8"></path></g><g id="Layer_2-2" data-name="Layer 2"><path class="cls-7 MSbaUrju_18" d="M193 101V23L18 101"></path><path class="cls-8 MSbaUrju_19" d="M193 101V23L18 101"></path><path class="cls-7 MSbaUrju_20" d="M219 20v81h26"></path><path class="cls-8 MSbaUrju_21" d="M219 20v81h26"></path><path class="cls-3 MSbaUrju_22" d="M108 61h65"></path><path style="stroke-width:12px;stroke:#f4f4f4;stroke-miterlimit:10;fill:none" d="M108 61h65" class="MSbaUrju_23"></path><path class="cls-8 MSbaUrju_24" d="M108 61h65"></path><path class="cls-10 MSbaUrju_25" d="M205 117v47M395 129H17"></path><path class="cls-8 MSbaUrju_26" d="M201 133c-72 44-181 56-184 56M210 133c72 44 182 56 185 56"></path><path d="M143 183h115a2 2 0 0 1 1 5l-54 25" style="stroke-linejoin:round;stroke:#f4f4f4;stroke-width:14px;stroke-linecap:round;fill:none" class="MSbaUrju_27"></path><path class="cls-8 MSbaUrju_28" d="m198 208 26 17s18 32-18 81l-9-14"></path><path style="stroke-linejoin:round;stroke:#f4f4f4;fill:#fff;stroke-width:14px;stroke-linecap:round" d="M141 234h254" class="MSbaUrju_29"></path><path class="cls-13 MSbaUrju_30" d="M283 101h14"></path><path class="cls-14 MSbaUrju_31" d="M256.5,100.8A7,7 0,1,1 270.5,100.8A7,7 0,1,1 256.5,100.8"></path><path class="cls-13 MSbaUrju_32" d="M316 101h14M349 101h14M381 101h14M108 234h14"></path><path class="cls-14 MSbaUrju_33" d="M48.5,233.8A7,7 0,1,1 62.5,233.8A7,7 0,1,1 48.5,233.8"></path><path class="cls-13 MSbaUrju_34" d="M75 234h14"></path><path class="cls-14 MSbaUrju_35" d="M30.5,233.8A7,7 0,1,1 44.5,233.8A7,7 0,1,1 30.5,233.8"></path><path class="cls-14 MSbaUrju_36" d="M12.5,233.8A7,7 0,1,1 26.5,233.8A7,7 0,1,1 12.5,233.8"></path></g></g><style data-made-with="vivus-instant">.MSbaUrju_0{stroke-dasharray:270 272;stroke-dashoffset:271;animation:MSbaUrju_draw 3000ms ease 0ms forwards;}.MSbaUrju_1{stroke-dasharray:270 272;stroke-dashoffset:271;animation:MSbaUrju_draw 3000ms ease 0ms forwards;}.MSbaUrju_2{stroke-dasharray:107 109;stroke-dashoffset:108;animation:MSbaUrju_draw 3000ms ease 0ms forwards;}.MSbaUrju_3{stroke-dasharray:107 109;stroke-dashoffset:108;animation:MSbaUrju_draw 3000ms ease 0ms forwards;}.MSbaUrju_4{stroke-dasharray:65 67;stroke-dashoffset:66;animation:MSbaUrju_draw 3000ms ease 0ms forwards;}.MSbaUrju_5{stroke-dasharray:65 67;stroke-dashoffset:66;animation:MSbaUrju_draw 3000ms ease 0ms forwards;}.MSbaUrju_6{stroke-dasharray:65 67;stroke-dashoffset:66;animation:MSbaUrju_draw 3000ms ease 0ms forwards;}.MSbaUrju_7{stroke-dasharray:425 427;stroke-dashoffset:426;animation:MSbaUrju_draw 3000ms ease 0ms forwards;}.MSbaUrju_8{stroke-dasharray:571 573;stroke-dashoffset:572;animation:MSbaUrju_draw 3000ms ease 0ms forwards;}.MSbaUrju_9{stroke-dasharray:135 137;stroke-dashoffset:136;animation:MSbaUrju_draw 3000ms ease 0ms forwards;}.MSbaUrju_10{stroke-dasharray:254 256;stroke-dashoffset:255;animation:MSbaUrju_draw 3000ms ease 0ms forwards;}.MSbaUrju_11{stroke-dasharray:14 16;stroke-dashoffset:15;animation:MSbaUrju_draw 3000ms ease 0ms forwards;}.MSbaUrju_12{stroke-dasharray:44 46;stroke-dashoffset:45;animation:MSbaUrju_draw 3000ms ease 0ms forwards;}.MSbaUrju_13{stroke-dasharray:56 58;stroke-dashoffset:57;animation:MSbaUrju_draw 3000ms ease 0ms forwards;}.MSbaUrju_14{stroke-dasharray:44 46;stroke-dashoffset:45;animation:MSbaUrju_draw 3000ms ease 0ms forwards;}.MSbaUrju_15{stroke-dasharray:14 16;stroke-dashoffset:15;animation:MSbaUrju_draw 3000ms ease 0ms forwards;}.MSbaUrju_16{stroke-dasharray:44 46;stroke-dashoffset:45;animation:MSbaUrju_draw 3000ms ease 0ms forwards;}.MSbaUrju_17{stroke-dasharray:44 46;stroke-dashoffset:45;animation:MSbaUrju_draw 3000ms ease 0ms forwards;}.MSbaUrju_18{stroke-dasharray:270 272;stroke-dashoffset:271;animation:MSbaUrju_draw 3000ms ease 0ms forwards;}.MSbaUrju_19{stroke-dasharray:270 272;stroke-dashoffset:271;animation:MSbaUrju_draw 3000ms ease 0ms forwards;}.MSbaUrju_20{stroke-dasharray:107 109;stroke-dashoffset:108;animation:MSbaUrju_draw 3000ms ease 0ms forwards;}.MSbaUrju_21{stroke-dasharray:107 109;stroke-dashoffset:108;animation:MSbaUrju_draw 3000ms ease 0ms forwards;}.MSbaUrju_22{stroke-dasharray:65 67;stroke-dashoffset:66;animation:MSbaUrju_draw 3000ms ease 0ms forwards;}.MSbaUrju_23{stroke-dasharray:65 67;stroke-dashoffset:66;animation:MSbaUrju_draw 3000ms ease 0ms forwards;}.MSbaUrju_24{stroke-dasharray:65 67;stroke-dashoffset:66;animation:MSbaUrju_draw 3000ms ease 0ms forwards;}.MSbaUrju_25{stroke-dasharray:425 427;stroke-dashoffset:426;animation:MSbaUrju_draw 3000ms ease 0ms forwards;}.MSbaUrju_26{stroke-dasharray:389 391;stroke-dashoffset:390;animation:MSbaUrju_draw 3000ms ease 0ms forwards;}.MSbaUrju_27{stroke-dasharray:183 185;stroke-dashoffset:184;animation:MSbaUrju_draw 3000ms ease 0ms forwards;}.MSbaUrju_28{stroke-dasharray:135 137;stroke-dashoffset:136;animation:MSbaUrju_draw 3000ms ease 0ms forwards;}.MSbaUrju_29{stroke-dasharray:254 256;stroke-dashoffset:255;animation:MSbaUrju_draw 3000ms ease 0ms forwards;}.MSbaUrju_30{stroke-dasharray:14 16;stroke-dashoffset:15;animation:MSbaUrju_draw 3000ms ease 0ms forwards;}.MSbaUrju_31{stroke-dasharray:44 46;stroke-dashoffset:45;animation:MSbaUrju_draw 3000ms ease 0ms forwards;}.MSbaUrju_32{stroke-dasharray:56 58;stroke-dashoffset:57;animation:MSbaUrju_draw 3000ms ease 0ms forwards;}.MSbaUrju_33{stroke-dasharray:44 46;stroke-dashoffset:45;animation:MSbaUrju_draw 3000ms ease 0ms forwards;}.MSbaUrju_34{stroke-dasharray:14 16;stroke-dashoffset:15;animation:MSbaUrju_draw 3000ms ease 0ms forwards;}.MSbaUrju_35{stroke-dasharray:44 46;stroke-dashoffset:45;animation:MSbaUrju_draw 3000ms ease 0ms forwards;}.MSbaUrju_36{stroke-dasharray:44 46;stroke-dashoffset:45;animation:MSbaUrju_draw 3000ms ease 0ms forwards;}@keyframes MSbaUrju_draw{100%{stroke-dashoffset:0;}}@keyframes MSbaUrju_fade{0%{stroke-opacity:1;}94.44444444444444%{stroke-opacity:1;}100%{stroke-opacity:0;}}</style></svg>