<svg xmlns="http://www.w3.org/2000/svg" viewBox="0 0 392 327" style="enable-background:new 0 0 392 327" xml:space="preserve"><style>.st0{fill:none}.st1,.st2,.st4{fill:none;stroke:#bcbcbc;stroke-linecap:round}.st1{stroke-width:12;stroke-miterlimit:10}.st2,.st4{stroke-width:14}.st2{stroke-miterlimit:10}.st4{stroke-linejoin:round}.st5{fill:#bcbcbc}.st6,.st7,.st9{fill:none;stroke:#434343;stroke-linecap:round}.st6{stroke-width:12;stroke-miterlimit:10}.st7,.st9{stroke-width:14}.st7{stroke-miterlimit:10}.st9{stroke-linejoin:round}.st10{fill:#434343}</style><g id="Layer_1"><g id="Layer_1-2"><path class="st0" d="M183 109V31L8 109"/><path class="st1" d="M183 109V31L8 109"/><path class="st2" d="M183 109V31L8 109"/><path class="st0" d="M209 29v80h26"/><path class="st1" d="M209 29v80h26"/><path class="st2" d="M209 29v80h26"/><path class="st0" d="M98 69h65"/><path style="fill:none;stroke:#bcbcbc;stroke-width:12;stroke-miterlimit:10" d="M98 69h65"/><path class="st2" d="M98 69h65M195 126v47M385 138H7M191 142c-72 43-181 56-184 56M200 142c72 43 182 56 185 56"/><path class="st4" d="M133 192h115l2 2-1 2-54 26"/><path class="st2" d="m188 217 26 17s18 31-18 81l-9-14"/><path class="st4" d="M131 242h254"/><path class="st2" d="M273 109h14"/><circle class="st5" cx="253.5" cy="109" r="7"/><path class="st2" d="M306 109h14M339 109h14M371 109h14M98 242h14"/><circle class="st5" cx="45.5" cy="242" r="7"/><path class="st2" d="M65 242h14"/><circle class="st5" cx="27.5" cy="242" r="7"/><circle class="st5" cx="9.5" cy="242" r="7"/></g></g><g id="Layer_2"><g id="Layer_1-2_1_"><path class="st0" d="M183 90V12L8 90"/><path class="st6" d="M183 90V12L8 90"/><path class="st7" d="M183 90V12L8 90"/><path class="st0" d="M209 10v80h26"/><path class="st6" d="M209 10v80h26"/><path class="st7" d="M209 10v80h26"/><path class="st0" d="M98 50h65"/><path style="fill:none;stroke:#434343;stroke-width:12;stroke-miterlimit:10" d="M98 50h65"/><path class="st7" d="M98 50h65M195 107v47M385 119H7M191 123c-72 43-181 56-184 56M200 123c72 43 182 56 185 56"/><path class="st9" d="M133 173h115l2 2-1 2-54 26"/><path class="st7" d="m188 198 26 17s18 31-18 81l-9-14"/><path class="st9" d="M131 223h254"/><path class="st7" d="M273 90h14"/><circle class="st10" cx="253.5" cy="90" r="7"/><path class="st7" d="M306 90h14M339 90h14M371 90h14M98 223h14"/><circle class="st10" cx="45.5" cy="223" r="7"/><path class="st7" d="M65 223h14"/><circle class="st10" cx="27.5" cy="223" r="7"/><circle class="st10" cx="9.5" cy="223" r="7"/></g></g></svg>